<svg width="335" height="103" viewBox="0 0 335 103" fill="none" xmlns="http://www.w3.org/2000/svg">
<path d="M64.2839 16C70.5438 16 75.5095 17.9091 79.1812 21.7273C82.913 25.5455 84.7789 30.8485 84.7789 37.6364V67.2727H69.4303V39.7273C69.4303 36.4545 68.5575 33.9394 66.812 32.1818C65.1266 30.3636 62.7792 29.4545 59.7696 29.4545C56.7601 29.4545 54.3825 30.3636 52.637 32.1818C50.9516 33.9394 50.109 36.4545 50.109 39.7273V67.2727H34.7603V39.7273C34.7603 36.4545 33.8875 33.9394 32.142 32.1818C30.4566 30.3636 28.1092 29.4545 25.0996 29.4545C22.0901 29.4545 19.7125 30.3636 17.967 32.1818C16.2817 33.9394 15.439 36.4545 15.439 39.7273V67.2727H0V16.5455H15.439V22.9091C17.0039 20.7879 19.0504 19.1212 21.5785 17.9091C24.1065 16.6364 26.9655 16 30.1557 16C33.9477 16 37.3184 16.8182 40.2677 18.4545C43.2773 20.0909 45.6247 22.4242 47.3101 25.4545C49.0556 22.6667 51.4332 20.3939 54.4427 18.6364C57.4523 16.8788 60.7327 16 64.2839 16Z" fill="#F50057"/>
<path d="M92.5069 41.8182C92.5069 36.6061 93.47 32.0303 95.3961 28.0909C97.3824 24.1515 100.061 21.1212 103.432 19C106.802 16.8788 110.564 15.8182 114.717 15.8182C118.269 15.8182 121.368 16.5454 124.017 18C126.725 19.4545 128.802 21.3636 130.247 23.7273V16.5455H145.686V67.2727H130.247V60.0909C128.742 62.4545 126.635 64.3636 123.927 65.8182C121.278 67.2727 118.178 68 114.627 68C110.534 68 106.802 66.9394 103.432 64.8182C100.061 62.6364 97.3824 59.5757 95.3961 55.6364C93.47 51.6364 92.5069 47.0303 92.5069 41.8182ZM130.247 41.9091C130.247 38.0303 129.163 34.9697 126.996 32.7273C124.89 30.4848 122.301 29.3636 119.232 29.3636C116.162 29.3636 113.544 30.4848 111.377 32.7273C109.27 34.9091 108.217 37.9394 108.217 41.8182C108.217 45.697 109.27 48.7879 111.377 51.0909C113.544 53.3333 116.162 54.4545 119.232 54.4545C122.301 54.4545 124.89 53.3333 126.996 51.0909C129.163 48.8485 130.247 45.7879 130.247 41.9091Z" fill="#F50057"/>
<path d="M172.294 25C174.1 22.2121 176.357 20.0303 179.065 18.4545C181.774 16.8182 184.784 16 188.094 16V32.4545H183.851C179.998 32.4545 177.109 33.303 175.183 35C173.257 36.6364 172.294 39.5455 172.294 43.7273V67.2727H156.855V16.5455H172.294V25Z" fill="#F50057"/>
<path d="M226.261 67.2727L210.913 46V67.2727H195.474V0H210.913V37.1818L226.171 16.5455H245.221L224.275 42L245.402 67.2727H226.261Z" fill="#F50057"/>
<path d="M298.776 41.0909C298.776 42.5455 298.686 44.0606 298.505 45.6364H263.564C263.805 48.7879 264.798 51.2121 266.544 52.9091C268.35 54.5454 270.547 55.3636 273.135 55.3636C276.987 55.3636 279.665 53.7273 281.17 50.4545H297.602C296.76 53.7879 295.225 56.7879 292.998 59.4545C290.831 62.1212 288.092 64.2121 284.782 65.7273C281.471 67.2424 277.769 68 273.676 68C268.741 68 264.347 66.9394 260.495 64.8182C256.642 62.697 253.633 59.6667 251.466 55.7273C249.299 51.7879 248.216 47.1818 248.216 41.9091C248.216 36.6364 249.269 32.0303 251.376 28.0909C253.543 24.1515 256.552 21.1212 260.404 19C264.257 16.8788 268.681 15.8182 273.676 15.8182C278.552 15.8182 282.886 16.8485 286.678 18.9091C290.47 20.9697 293.419 23.9091 295.526 27.7273C297.693 31.5455 298.776 36 298.776 41.0909ZM282.976 37C282.976 34.3333 282.073 32.2121 280.267 30.6364C278.462 29.0606 276.205 28.2727 273.496 28.2727C270.908 28.2727 268.711 29.0303 266.905 30.5455C265.159 32.0606 264.076 34.2121 263.655 37H282.976Z" fill="#F50057"/>
<path d="M335 54.0909V67.2727H327.145C321.547 67.2727 317.183 65.9091 314.054 63.1818C310.924 60.3939 309.359 55.8788 309.359 49.6364V29.4545H303.219V16.5455H309.359V4.18182H324.798V16.5455H334.91V29.4545H324.798V49.8182C324.798 51.3333 325.159 52.4242 325.881 53.0909C326.603 53.7576 327.807 54.0909 329.493 54.0909H335Z" fill="#F50057"/>
<path d="M109.776 89.072C110.459 89.072 111.067 89.216 111.6 89.504C112.133 89.7813 112.555 90.2027 112.864 90.768C113.173 91.3333 113.328 92.0213 113.328 92.832V98H111.888V93.04C111.888 92.1653 111.669 91.4987 111.232 91.04C110.805 90.5707 110.224 90.336 109.488 90.336C108.731 90.336 108.128 90.5813 107.68 91.072C107.232 91.552 107.008 92.2507 107.008 93.168V98H105.568V93.04C105.568 92.1653 105.349 91.4987 104.912 91.04C104.485 90.5707 103.904 90.336 103.168 90.336C102.411 90.336 101.808 90.5813 101.36 91.072C100.912 91.552 100.688 92.2507 100.688 93.168V98H99.232V89.232H100.688V90.496C100.976 90.0373 101.36 89.6853 101.84 89.44C102.331 89.1947 102.869 89.072 103.456 89.072C104.192 89.072 104.843 89.2373 105.408 89.568C105.973 89.8987 106.395 90.384 106.672 91.024C106.917 90.4053 107.323 89.9253 107.888 89.584C108.453 89.2427 109.083 89.072 109.776 89.072Z" fill="black"/>
<path d="M115.172 93.584C115.172 92.688 115.354 91.904 115.716 91.232C116.079 90.5493 116.575 90.0213 117.204 89.648C117.844 89.2747 118.554 89.088 119.332 89.088C120.1 89.088 120.767 89.2533 121.332 89.584C121.898 89.9147 122.319 90.3307 122.596 90.832V89.232H124.068V98H122.596V96.368C122.308 96.88 121.876 97.3067 121.3 97.648C120.735 97.9787 120.074 98.144 119.316 98.144C118.538 98.144 117.834 97.952 117.204 97.568C116.575 97.184 116.079 96.6453 115.716 95.952C115.354 95.2587 115.172 94.4693 115.172 93.584ZM122.596 93.6C122.596 92.9387 122.463 92.3627 122.196 91.872C121.93 91.3813 121.567 91.008 121.108 90.752C120.66 90.4853 120.164 90.352 119.62 90.352C119.076 90.352 118.58 90.48 118.132 90.736C117.684 90.992 117.327 91.3653 117.06 91.856C116.794 92.3467 116.66 92.9227 116.66 93.584C116.66 94.256 116.794 94.8427 117.06 95.344C117.327 95.8347 117.684 96.2133 118.132 96.48C118.58 96.736 119.076 96.864 119.62 96.864C120.164 96.864 120.66 96.736 121.108 96.48C121.567 96.2133 121.93 95.8347 122.196 95.344C122.463 94.8427 122.596 94.2613 122.596 93.6Z" fill="black"/>
<path d="M131.425 98L127.985 94.128V98H126.529V86.16H127.985V93.12L131.361 89.232H133.393L129.265 93.6L133.409 98H131.425Z" fill="black"/>
<path d="M135.515 87.808C135.238 87.808 135.003 87.712 134.811 87.52C134.619 87.328 134.523 87.0933 134.523 86.816C134.523 86.5387 134.619 86.304 134.811 86.112C135.003 85.92 135.238 85.824 135.515 85.824C135.782 85.824 136.006 85.92 136.187 86.112C136.379 86.304 136.475 86.5387 136.475 86.816C136.475 87.0933 136.379 87.328 136.187 87.52C136.006 87.712 135.782 87.808 135.515 87.808ZM136.219 89.232V98H134.763V89.232H136.219Z" fill="black"/>
<path d="M142.973 89.072C144.039 89.072 144.903 89.3973 145.565 90.048C146.226 90.688 146.557 91.616 146.557 92.832V98H145.117V93.04C145.117 92.1653 144.898 91.4987 144.461 91.04C144.023 90.5707 143.426 90.336 142.669 90.336C141.901 90.336 141.287 90.576 140.829 91.056C140.381 91.536 140.157 92.2347 140.157 93.152V98H138.701V89.232H140.157V90.48C140.445 90.032 140.834 89.6853 141.325 89.44C141.826 89.1947 142.375 89.072 142.973 89.072Z" fill="black"/>
<path d="M152.551 89.088C153.308 89.088 153.97 89.2533 154.535 89.584C155.111 89.9147 155.538 90.3307 155.815 90.832V89.232H157.287V98.192C157.287 98.992 157.116 99.7013 156.775 100.32C156.434 100.949 155.943 101.44 155.303 101.792C154.674 102.144 153.938 102.32 153.095 102.32C151.943 102.32 150.983 102.048 150.215 101.504C149.447 100.96 148.994 100.219 148.855 99.28H150.295C150.455 99.8133 150.786 100.24 151.287 100.56C151.788 100.891 152.391 101.056 153.095 101.056C153.895 101.056 154.546 100.805 155.047 100.304C155.559 99.8027 155.815 99.0987 155.815 98.192V96.352C155.527 96.864 155.1 97.2907 154.535 97.632C153.97 97.9733 153.308 98.144 152.551 98.144C151.772 98.144 151.063 97.952 150.423 97.568C149.794 97.184 149.298 96.6453 148.935 95.952C148.572 95.2587 148.391 94.4693 148.391 93.584C148.391 92.688 148.572 91.904 148.935 91.232C149.298 90.5493 149.794 90.0213 150.423 89.648C151.063 89.2747 151.772 89.088 152.551 89.088ZM155.815 93.6C155.815 92.9387 155.682 92.3627 155.415 91.872C155.148 91.3813 154.786 91.008 154.327 90.752C153.879 90.4853 153.383 90.352 152.839 90.352C152.295 90.352 151.799 90.48 151.351 90.736C150.903 90.992 150.546 91.3653 150.279 91.856C150.012 92.3467 149.879 92.9227 149.879 93.584C149.879 94.256 150.012 94.8427 150.279 95.344C150.546 95.8347 150.903 96.2133 151.351 96.48C151.799 96.736 152.295 96.864 152.839 96.864C153.383 96.864 153.879 96.736 154.327 96.48C154.786 96.2133 155.148 95.8347 155.415 95.344C155.682 94.8427 155.815 94.2613 155.815 93.6Z" fill="black"/>
<path d="M171.565 89.232L166.285 102.128H164.781L166.509 97.904L162.973 89.232H164.589L167.341 96.336L170.061 89.232H171.565Z" fill="black"/>
<path d="M176.853 98.144C176.032 98.144 175.285 97.9573 174.613 97.584C173.952 97.2107 173.429 96.6827 173.045 96C172.672 95.3067 172.485 94.5067 172.485 93.6C172.485 92.704 172.677 91.9147 173.061 91.232C173.456 90.5387 173.989 90.0107 174.661 89.648C175.333 89.2747 176.085 89.088 176.917 89.088C177.749 89.088 178.501 89.2747 179.173 89.648C179.845 90.0107 180.373 90.5333 180.757 91.216C181.152 91.8987 181.349 92.6933 181.349 93.6C181.349 94.5067 181.146 95.3067 180.741 96C180.346 96.6827 179.808 97.2107 179.125 97.584C178.442 97.9573 177.685 98.144 176.853 98.144ZM176.853 96.864C177.376 96.864 177.866 96.7413 178.325 96.496C178.784 96.2507 179.152 95.8827 179.429 95.392C179.717 94.9013 179.861 94.304 179.861 93.6C179.861 92.896 179.722 92.2987 179.445 91.808C179.168 91.3173 178.805 90.9547 178.357 90.72C177.909 90.4747 177.424 90.352 176.901 90.352C176.368 90.352 175.877 90.4747 175.429 90.72C174.992 90.9547 174.64 91.3173 174.373 91.808C174.106 92.2987 173.973 92.896 173.973 93.6C173.973 94.3147 174.101 94.9173 174.357 95.408C174.624 95.8987 174.976 96.2667 175.413 96.512C175.85 96.7467 176.33 96.864 176.853 96.864Z" fill="black"/>
<path d="M191.039 89.232V98H189.583V96.704C189.306 97.152 188.917 97.504 188.415 97.76C187.925 98.0053 187.381 98.128 186.783 98.128C186.101 98.128 185.487 97.9893 184.943 97.712C184.399 97.424 183.967 96.9973 183.647 96.432C183.338 95.8667 183.183 95.1787 183.183 94.368V89.232H184.623V94.176C184.623 95.04 184.842 95.7067 185.279 96.176C185.717 96.6347 186.314 96.864 187.071 96.864C187.85 96.864 188.463 96.624 188.911 96.144C189.359 95.664 189.583 94.9653 189.583 94.048V89.232H191.039Z" fill="black"/>
<path d="M194.954 90.656C195.21 90.1547 195.572 89.7653 196.042 89.488C196.522 89.2107 197.103 89.072 197.786 89.072V90.576H197.402C195.77 90.576 194.954 91.4613 194.954 93.232V98H193.498V89.232H194.954V90.656Z" fill="black"/>
<path d="M206.836 98.144C206.164 98.144 205.561 98.032 205.028 97.808C204.495 97.5733 204.073 97.2533 203.764 96.848C203.455 96.432 203.284 95.9573 203.252 95.424H204.756C204.799 95.8613 205.001 96.2187 205.364 96.496C205.737 96.7733 206.223 96.912 206.82 96.912C207.375 96.912 207.812 96.7893 208.132 96.544C208.452 96.2987 208.612 95.9893 208.612 95.616C208.612 95.232 208.441 94.9493 208.1 94.768C207.759 94.576 207.231 94.3893 206.516 94.208C205.865 94.0373 205.332 93.8667 204.916 93.696C204.511 93.5147 204.159 93.2533 203.86 92.912C203.572 92.56 203.428 92.1013 203.428 91.536C203.428 91.088 203.561 90.6773 203.828 90.304C204.095 89.9307 204.473 89.6373 204.964 89.424C205.455 89.2 206.015 89.088 206.644 89.088C207.615 89.088 208.399 89.3333 208.996 89.824C209.593 90.3147 209.913 90.9867 209.956 91.84H208.5C208.468 91.3813 208.281 91.0133 207.94 90.736C207.609 90.4587 207.161 90.32 206.596 90.32C206.073 90.32 205.657 90.432 205.348 90.656C205.039 90.88 204.884 91.1733 204.884 91.536C204.884 91.824 204.975 92.064 205.156 92.256C205.348 92.4373 205.583 92.5867 205.86 92.704C206.148 92.8107 206.543 92.9333 207.044 93.072C207.673 93.2427 208.185 93.4133 208.58 93.584C208.975 93.744 209.311 93.9893 209.588 94.32C209.876 94.6507 210.025 95.0827 210.036 95.616C210.036 96.096 209.903 96.528 209.636 96.912C209.369 97.296 208.991 97.6 208.5 97.824C208.02 98.0373 207.465 98.144 206.836 98.144Z" fill="black"/>
<path d="M216.443 89.072C217.105 89.072 217.702 89.216 218.235 89.504C218.769 89.7813 219.185 90.2027 219.483 90.768C219.793 91.3333 219.947 92.0213 219.947 92.832V98H218.507V93.04C218.507 92.1653 218.289 91.4987 217.851 91.04C217.414 90.5707 216.817 90.336 216.059 90.336C215.291 90.336 214.678 90.576 214.219 91.056C213.771 91.536 213.547 92.2347 213.547 93.152V98H212.091V86.16H213.547V90.48C213.835 90.032 214.23 89.6853 214.731 89.44C215.243 89.1947 215.814 89.072 216.443 89.072Z" fill="black"/>
<path d="M226.15 98.144C225.328 98.144 224.582 97.9573 223.91 97.584C223.248 97.2107 222.726 96.6827 222.342 96C221.968 95.3067 221.782 94.5067 221.782 93.6C221.782 92.704 221.974 91.9147 222.358 91.232C222.752 90.5387 223.286 90.0107 223.958 89.648C224.63 89.2747 225.382 89.088 226.214 89.088C227.046 89.088 227.798 89.2747 228.47 89.648C229.142 90.0107 229.67 90.5333 230.054 91.216C230.448 91.8987 230.646 92.6933 230.646 93.6C230.646 94.5067 230.443 95.3067 230.038 96C229.643 96.6827 229.104 97.2107 228.422 97.584C227.739 97.9573 226.982 98.144 226.15 98.144ZM226.15 96.864C226.672 96.864 227.163 96.7413 227.622 96.496C228.08 96.2507 228.448 95.8827 228.726 95.392C229.014 94.9013 229.158 94.304 229.158 93.6C229.158 92.896 229.019 92.2987 228.742 91.808C228.464 91.3173 228.102 90.9547 227.654 90.72C227.206 90.4747 226.72 90.352 226.198 90.352C225.664 90.352 225.174 90.4747 224.726 90.72C224.288 90.9547 223.936 91.3173 223.67 91.808C223.403 92.2987 223.27 92.896 223.27 93.6C223.27 94.3147 223.398 94.9173 223.654 95.408C223.92 95.8987 224.272 96.2667 224.71 96.512C225.147 96.7467 225.627 96.864 226.15 96.864Z" fill="black"/>
<path d="M234.016 90.848C234.304 90.3467 234.731 89.9307 235.296 89.6C235.872 89.2587 236.539 89.088 237.296 89.088C238.075 89.088 238.779 89.2747 239.408 89.648C240.048 90.0213 240.549 90.5493 240.912 91.232C241.275 91.904 241.456 92.688 241.456 93.584C241.456 94.4693 241.275 95.2587 240.912 95.952C240.549 96.6453 240.048 97.184 239.408 97.568C238.779 97.952 238.075 98.144 237.296 98.144C236.549 98.144 235.888 97.9787 235.312 97.648C234.747 97.3067 234.315 96.8853 234.016 96.384V102.16H232.56V89.232H234.016V90.848ZM239.968 93.584C239.968 92.9227 239.835 92.3467 239.568 91.856C239.301 91.3653 238.939 90.992 238.48 90.736C238.032 90.48 237.536 90.352 236.992 90.352C236.459 90.352 235.963 90.4853 235.504 90.752C235.056 91.008 234.693 91.3867 234.416 91.888C234.149 92.3787 234.016 92.9493 234.016 93.6C234.016 94.2613 234.149 94.8427 234.416 95.344C234.693 95.8347 235.056 96.2133 235.504 96.48C235.963 96.736 236.459 96.864 236.992 96.864C237.536 96.864 238.032 96.736 238.48 96.48C238.939 96.2133 239.301 95.8347 239.568 95.344C239.835 94.8427 239.968 94.256 239.968 93.584Z" fill="black"/>
<path d="M244.829 90.848C245.117 90.3467 245.543 89.9307 246.109 89.6C246.685 89.2587 247.351 89.088 248.109 89.088C248.887 89.088 249.591 89.2747 250.221 89.648C250.861 90.0213 251.362 90.5493 251.725 91.232C252.087 91.904 252.269 92.688 252.269 93.584C252.269 94.4693 252.087 95.2587 251.725 95.952C251.362 96.6453 250.861 97.184 250.221 97.568C249.591 97.952 248.887 98.144 248.109 98.144C247.362 98.144 246.701 97.9787 246.125 97.648C245.559 97.3067 245.127 96.8853 244.829 96.384V102.16H243.373V89.232H244.829V90.848ZM250.781 93.584C250.781 92.9227 250.647 92.3467 250.381 91.856C250.114 91.3653 249.751 90.992 249.293 90.736C248.845 90.48 248.349 90.352 247.805 90.352C247.271 90.352 246.775 90.4853 246.317 90.752C245.869 91.008 245.506 91.3867 245.229 91.888C244.962 92.3787 244.829 92.9493 244.829 93.6C244.829 94.2613 244.962 94.8427 245.229 95.344C245.506 95.8347 245.869 96.2133 246.317 96.48C246.775 96.736 247.271 96.864 247.805 96.864C248.349 96.864 248.845 96.736 249.293 96.48C249.751 96.2133 250.114 95.8347 250.381 95.344C250.647 94.8427 250.781 94.256 250.781 93.584Z" fill="black"/>
<path d="M254.937 87.808C254.66 87.808 254.425 87.712 254.233 87.52C254.041 87.328 253.945 87.0933 253.945 86.816C253.945 86.5387 254.041 86.304 254.233 86.112C254.425 85.92 254.66 85.824 254.937 85.824C255.204 85.824 255.428 85.92 255.609 86.112C255.801 86.304 255.897 86.5387 255.897 86.816C255.897 87.0933 255.801 87.328 255.609 87.52C255.428 87.712 255.204 87.808 254.937 87.808ZM255.641 89.232V98H254.185V89.232H255.641Z" fill="black"/>
<path d="M262.395 89.072C263.461 89.072 264.325 89.3973 264.987 90.048C265.648 90.688 265.979 91.616 265.979 92.832V98H264.539V93.04C264.539 92.1653 264.32 91.4987 263.883 91.04C263.445 90.5707 262.848 90.336 262.091 90.336C261.323 90.336 260.709 90.576 260.251 91.056C259.803 91.536 259.579 92.2347 259.579 93.152V98H258.123V89.232H259.579V90.48C259.867 90.032 260.256 89.6853 260.747 89.44C261.248 89.1947 261.797 89.072 262.395 89.072Z" fill="black"/>
<path d="M271.973 89.088C272.73 89.088 273.392 89.2533 273.957 89.584C274.533 89.9147 274.96 90.3307 275.237 90.832V89.232H276.709V98.192C276.709 98.992 276.538 99.7013 276.197 100.32C275.856 100.949 275.365 101.44 274.725 101.792C274.096 102.144 273.36 102.32 272.517 102.32C271.365 102.32 270.405 102.048 269.637 101.504C268.869 100.96 268.416 100.219 268.277 99.28H269.717C269.877 99.8133 270.208 100.24 270.709 100.56C271.21 100.891 271.813 101.056 272.517 101.056C273.317 101.056 273.968 100.805 274.469 100.304C274.981 99.8027 275.237 99.0987 275.237 98.192V96.352C274.949 96.864 274.522 97.2907 273.957 97.632C273.392 97.9733 272.73 98.144 271.973 98.144C271.194 98.144 270.485 97.952 269.845 97.568C269.216 97.184 268.72 96.6453 268.357 95.952C267.994 95.2587 267.813 94.4693 267.813 93.584C267.813 92.688 267.994 91.904 268.357 91.232C268.72 90.5493 269.216 90.0213 269.845 89.648C270.485 89.2747 271.194 89.088 271.973 89.088ZM275.237 93.6C275.237 92.9387 275.104 92.3627 274.837 91.872C274.57 91.3813 274.208 91.008 273.749 90.752C273.301 90.4853 272.805 90.352 272.261 90.352C271.717 90.352 271.221 90.48 270.773 90.736C270.325 90.992 269.968 91.3653 269.701 91.856C269.434 92.3467 269.301 92.9227 269.301 93.584C269.301 94.256 269.434 94.8427 269.701 95.344C269.968 95.8347 270.325 96.2133 270.773 96.48C271.221 96.736 271.717 96.864 272.261 96.864C272.805 96.864 273.301 96.736 273.749 96.48C274.208 96.2133 274.57 95.8347 274.837 95.344C275.104 94.8427 275.237 94.2613 275.237 93.6Z" fill="black"/>
<path d="M291.435 93.28C291.435 93.5573 291.419 93.8507 291.387 94.16H284.379C284.432 95.024 284.726 95.7013 285.259 96.192C285.803 96.672 286.459 96.912 287.227 96.912C287.856 96.912 288.379 96.768 288.795 96.48C289.222 96.1813 289.52 95.7867 289.691 95.296H291.259C291.024 96.1387 290.555 96.8267 289.851 97.36C289.147 97.8827 288.272 98.144 287.227 98.144C286.395 98.144 285.648 97.9573 284.987 97.584C284.336 97.2107 283.824 96.6827 283.451 96C283.078 95.3067 282.891 94.5067 282.891 93.6C282.891 92.6933 283.072 91.8987 283.435 91.216C283.798 90.5333 284.304 90.0107 284.955 89.648C285.616 89.2747 286.374 89.088 287.227 89.088C288.059 89.088 288.795 89.2693 289.435 89.632C290.075 89.9947 290.566 90.496 290.907 91.136C291.259 91.7653 291.435 92.48 291.435 93.28ZM289.931 92.976C289.931 92.4213 289.808 91.9467 289.563 91.552C289.318 91.1467 288.982 90.8427 288.555 90.64C288.139 90.4267 287.675 90.32 287.163 90.32C286.427 90.32 285.798 90.5547 285.275 91.024C284.763 91.4933 284.47 92.144 284.395 92.976H289.931Z" fill="black"/>
<path d="M292.813 93.584C292.813 92.688 292.994 91.904 293.357 91.232C293.72 90.5493 294.216 90.0213 294.845 89.648C295.485 89.2747 296.194 89.088 296.973 89.088C297.741 89.088 298.408 89.2533 298.973 89.584C299.538 89.9147 299.96 90.3307 300.237 90.832V89.232H301.709V98H300.237V96.368C299.949 96.88 299.517 97.3067 298.941 97.648C298.376 97.9787 297.714 98.144 296.957 98.144C296.178 98.144 295.474 97.952 294.845 97.568C294.216 97.184 293.72 96.6453 293.357 95.952C292.994 95.2587 292.813 94.4693 292.813 93.584ZM300.237 93.6C300.237 92.9387 300.104 92.3627 299.837 91.872C299.57 91.3813 299.208 91.008 298.749 90.752C298.301 90.4853 297.805 90.352 297.261 90.352C296.717 90.352 296.221 90.48 295.773 90.736C295.325 90.992 294.968 91.3653 294.701 91.856C294.434 92.3467 294.301 92.9227 294.301 93.584C294.301 94.256 294.434 94.8427 294.701 95.344C294.968 95.8347 295.325 96.2133 295.773 96.48C296.221 96.736 296.717 96.864 297.261 96.864C297.805 96.864 298.301 96.736 298.749 96.48C299.208 96.2133 299.57 95.8347 299.837 95.344C300.104 94.8427 300.237 94.2613 300.237 93.6Z" fill="black"/>
<path d="M307.273 98.144C306.601 98.144 305.999 98.032 305.465 97.808C304.932 97.5733 304.511 97.2533 304.202 96.848C303.892 96.432 303.721 95.9573 303.689 95.424H305.193C305.236 95.8613 305.439 96.2187 305.801 96.496C306.175 96.7733 306.66 96.912 307.258 96.912C307.812 96.912 308.25 96.7893 308.57 96.544C308.89 96.2987 309.049 95.9893 309.049 95.616C309.049 95.232 308.879 94.9493 308.538 94.768C308.196 94.576 307.668 94.3893 306.954 94.208C306.303 94.0373 305.77 93.8667 305.354 93.696C304.948 93.5147 304.596 93.2533 304.298 92.912C304.01 92.56 303.865 92.1013 303.865 91.536C303.865 91.088 303.999 90.6773 304.266 90.304C304.532 89.9307 304.911 89.6373 305.402 89.424C305.892 89.2 306.452 89.088 307.081 89.088C308.052 89.088 308.836 89.3333 309.434 89.824C310.031 90.3147 310.351 90.9867 310.393 91.84H308.938C308.905 91.3813 308.719 91.0133 308.378 90.736C308.047 90.4587 307.599 90.32 307.033 90.32C306.511 90.32 306.095 90.432 305.786 90.656C305.476 90.88 305.322 91.1733 305.322 91.536C305.322 91.824 305.412 92.064 305.594 92.256C305.786 92.4373 306.02 92.5867 306.298 92.704C306.586 92.8107 306.98 92.9333 307.482 93.072C308.111 93.2427 308.623 93.4133 309.018 93.584C309.412 93.744 309.748 93.9893 310.025 94.32C310.313 94.6507 310.463 95.0827 310.473 95.616C310.473 96.096 310.34 96.528 310.074 96.912C309.807 97.296 309.428 97.6 308.938 97.824C308.457 98.0373 307.903 98.144 307.273 98.144Z" fill="black"/>
<path d="M313.281 87.808C313.004 87.808 312.769 87.712 312.577 87.52C312.385 87.328 312.289 87.0933 312.289 86.816C312.289 86.5387 312.385 86.304 312.577 86.112C312.769 85.92 313.004 85.824 313.281 85.824C313.548 85.824 313.772 85.92 313.953 86.112C314.145 86.304 314.241 86.5387 314.241 86.816C314.241 87.0933 314.145 87.328 313.953 87.52C313.772 87.712 313.548 87.808 313.281 87.808ZM313.985 89.232V98H312.529V89.232H313.985Z" fill="black"/>
<path d="M324.466 93.28C324.466 93.5573 324.45 93.8507 324.418 94.16H317.41C317.464 95.024 317.757 95.7013 318.29 96.192C318.834 96.672 319.49 96.912 320.258 96.912C320.888 96.912 321.41 96.768 321.826 96.48C322.253 96.1813 322.552 95.7867 322.722 95.296H324.29C324.056 96.1387 323.586 96.8267 322.882 97.36C322.178 97.8827 321.304 98.144 320.258 98.144C319.426 98.144 318.68 97.9573 318.018 97.584C317.368 97.2107 316.856 96.6827 316.482 96C316.109 95.3067 315.922 94.5067 315.922 93.6C315.922 92.6933 316.104 91.8987 316.466 91.216C316.829 90.5333 317.336 90.0107 317.986 89.648C318.648 89.2747 319.405 89.088 320.258 89.088C321.09 89.088 321.826 89.2693 322.466 89.632C323.106 89.9947 323.597 90.496 323.938 91.136C324.29 91.7653 324.466 92.48 324.466 93.28ZM322.962 92.976C322.962 92.4213 322.84 91.9467 322.594 91.552C322.349 91.1467 322.013 90.8427 321.586 90.64C321.17 90.4267 320.706 90.32 320.194 90.32C319.458 90.32 318.829 90.5547 318.306 91.024C317.794 91.4933 317.501 92.144 317.426 92.976H322.962Z" fill="black"/>
<path d="M327.844 90.656C328.1 90.1547 328.463 89.7653 328.932 89.488C329.412 89.2107 329.994 89.072 330.676 89.072V90.576H330.292C328.66 90.576 327.844 91.4613 327.844 93.232V98H326.388V89.232H327.844V90.656Z" fill="black"/>
<path d="M332.821 98.096C332.544 98.096 332.309 98 332.117 97.808C331.925 97.616 331.829 97.3813 331.829 97.104C331.829 96.8267 331.925 96.592 332.117 96.4C332.309 96.208 332.544 96.112 332.821 96.112C333.088 96.112 333.312 96.208 333.493 96.4C333.685 96.592 333.781 96.8267 333.781 97.104C333.781 97.3813 333.685 97.616 333.493 97.808C333.312 98 333.088 98.096 332.821 98.096Z" fill="black"/>
</svg>
